<?xml version="1.0" encoding="utf-8"?>
<!-- Generator: Adobe Illustrator 25.0.0, SVG Export Plug-In . SVG Version: 6.00 Build 0)  -->
<svg version="1.1" id="Layer_1" xmlns="http://www.w3.org/2000/svg" xmlns:xlink="http://www.w3.org/1999/xlink" x="0px" y="0px"
	 viewBox="0 0 576 252" style="enable-background:new 0 0 576 252;" xml:space="preserve">
<style type="text/css">
	.st0{fill:#1D1C1C;}
	.st1{opacity:0.3;fill:#1D1C1C;}
	.st2{fill:url(#SVGID_1_);}
	.st3{fill:#CBB26A;}
	.st4{opacity:0.3;fill:#CBB26A;}
	.st5{fill:url(#SVGID_2_);}
	.st6{fill:#FFFFFF;}
	.st7{opacity:0.3;fill:#FFFFFF;}
</style>
<g>
	<path class="st6" d="M158.33,110.13l-17.52-8.55c-1.75-0.85-3.78-0.92-5.59-0.2l-3.93,1.57V91.78c0-1.62-0.91-3.1-2.36-3.82
		l-16.97-8.49c-1.46-0.73-3.18-0.71-4.62,0.05l-41.37,21.67c-1.12,0.58-1.81,1.74-1.81,2.99v11.22l-8.5,4.58
		c-1.26,0.68-2.06,2.01-2.06,3.44v46.94c0,1.49,1.21,2.71,2.71,2.71h99.22c2.62,0,4.74-2.12,4.74-4.74v-55.12
		C160.26,111.9,159.51,110.7,158.33,110.13z M79.57,167.38H58.46v-44.13l21.12-9.21V167.38z M106.92,167.38h-7.31v-56.06
		c0-1.37-1.05-2.51-2.41-2.64l-13.28-1.22c-1.25-0.12-2.51,0.09-3.65,0.6l-10.97,4.9v-8.12l37.63-18.95V167.38z M134.53,167.38
		h-3.52v-58.75l3.52-1.09V167.38z"/>
	<path class="st6" d="M216.33,150.87c-13.21,0-20.07-10.29-20.07-23.88c0-13.53,7.81-23.37,20.32-23.37c5.97,0,9.66,0.86,11.63,2.19
		l-2.2,8.55c-2.1-1.27-4.96-1.31-8.32-1.31c-4.95,0-8.78,3.3-9.67,9.27c-0.51,2.03-0.83,3.95-0.64,6.23
		c0.38,6.1,2.98,11.82,8.45,12.58c1.08,0.19,2.8,0.21,3.88,0.08c3.11-0.19,5.02-0.01,6.6-0.77l2.86,8.7
		C226.49,150.93,222.04,150.87,216.33,150.87z"/>
	<path class="st6" d="M245.83,150.69c-9.93,0-16.08-7.15-16.08-17.45c0-10.24,6.27-17.38,16.08-17.38c9.87,0,16.08,7.15,16.08,17.38
		C261.91,143.54,255.82,150.69,245.83,150.69z M245.83,124.53c-3.91,0-6.2,3.27-6.2,8.78c0,5.57,2.29,8.78,6.2,8.78
		s5.88-3.33,5.88-8.9C251.71,127.61,249.74,124.53,245.83,124.53z"/>
	<path class="st6" d="M290.09,115.32L290.09,115.32c-8.13-0.88-11.43,3.52-11.43,3.52h-0.81l-0.24-3.36h-4.1h-5.53l-4.72,8.55h5.71
		l0.03,26h0.43h0.23h9.55v-22.06c0-1.6,2.07-2.92,3.67-2.98c0.26-0.01,0.55-0.02,0.87-0.02c5.05,0,4.92,1.71,4.92,7.81v17.25h10.53
		v-18.81C299.2,123.5,298.08,117.19,290.09,115.32z"/>
	<path class="st6" d="M315.99,149.9c-5.19,0-9.37-0.44-11.39-1.52l2.4-7.97c2.22,1.14,5.25,1.2,8.23,1.2c2.53,0,5.07-0.95,5.07-2.6
		c0-1.77-3.74-1.71-8.11-3.48c-5.32-2.34-6.95-5.9-6.64-10.57c0.39-6.05,5.6-8.85,12.72-9.43c4.42-0.36,9.12,1.01,11.84,2.34
		c-0.82,2.53-2.6,5-3.36,7.47c-1.77-0.82-3.84-1.36-6.62-1.36c-2.34,0-4.32,0-4.18,1.52c0.18,1.96,1.94,2.34,5.99,3.51
		c6.74,1.96,8.7,4.86,8.23,10.38C329.59,146.14,324.91,149.9,315.99,149.9z"/>
	<path class="st6" d="M350.72,150.35c-11.01,0.51-13.57-5.24-13.29-12.78c0.12-3.36,0.26-10.57,0.11-13.54l-4.28,0.06v-8.1h4.25
		l0.14-9.69h10.05l0.07,9.61h7.68l-4.51,8.16h-3.34l-0.03,12.62c0,4.43,1.95,4.49,4.74,4.67c1.77,0.06,1.4,0.45,3.11-0.37
		c0.25,2.66,0.57,5.7,0.82,8.36C354.77,149.97,353.51,150.16,350.72,150.35z"/>
	<path class="st6" d="M376.14,115.4l-4.05,2.52h-0.51v-2.03h-10.81l-4.26,8.17l0.02,0.07h5.06v25.83l10.03-0.02l-0.03-21.82
		c0.49-1.08,1.66-1.99,2.73-2.62c0.01,0,0.01-0.01,0.01-0.01c0.21-0.16,0.44-0.29,0.66-0.38c0.02-0.01,0.03-0.02,0.04-0.02
		c0.74-0.4,1.29-0.54,1.29-0.54h4.42c0.08-0.01,0.91,0.01,1.01,0.02v-9.18H376.14z"/>
	<path class="st6" d="M401.39,149.89c-10.98,0-14.74-5.26-14.74-14.38v-19.57h10.43v16.04c0,5.74,0.06,9.48,4.75,9.48
		c1.48,0,3.35-0.24,4.15-0.48v-25.05h9.92v31.17C413.23,148.92,408.05,149.89,401.39,149.89z"/>
	<path class="st6" d="M439.99,115.91c-2.61,0-4.84,0.04-6.32,0.7v-12.44h-10.51l-4.2,8.19h4.84v35.24l0.23,1.7
		c2.61,0.64,9.39,1.09,12.87,1.09c10.73,0,17.02-6.56,17.02-17.81C453.92,122.59,448.59,115.91,439.99,115.91z M437.2,141.29
		c-1.13,0.02-3.04,0.04-3.69,0.03v-16.81c0.99-0.05,2.29,0.08,3.83,0.08c4.45,0,6.8,2.58,6.8,8.3
		C444.15,139.21,441.16,141.24,437.2,141.29z"/>
	<path class="st6" d="M472.18,150.27c-9.56,0-14.24-2.91-14.24-10.95c0-8.48,6.04-11.52,14.9-12.03c1.01-0.06,2.15,0.06,2.91,0.13
		c-0.19-3.1-2.06-3.47-6.05-3.47c-3.48,0-5.31,0.66-7.84,1.68l-1.84-7.88c2.47-0.95,5.69-2.28,11.13-2.28
		c8.48,0,13.32,3.53,14.27,10.56c0.19,1.33,0.32,2.72,0.32,4.24v18.08C482.84,149.42,478.44,150.27,472.18,150.27z M476.1,135.07
		c-0.89,0-2.73-0.05-3.87,0.08c-3.35,0.32-4.39,0.22-5.44,2.84c-0.79,1.98,2.03,4.3,5.44,4.3c1.77,0,2.85-0.08,3.87-0.33V135.07z"/>
	<g>
		<path class="st6" d="M496.52,157.26c-0.44-0.07-0.77-0.12-1.02-0.16C496.15,157.23,496.88,157.32,496.52,157.26z"/>
		<path class="st7" d="M495.5,157.1c-0.21-0.04-0.41-0.09-0.56-0.14C494.9,156.98,495.05,157.02,495.5,157.1z"/>
		<path class="st6" d="M511.56,115.76c-1.5,6.18-2.94,12.16-4.64,18.41c-0.58,2.52-1.62,5.37-1.94,6.05
			c-0.39-1.02-0.85-3.4-1.5-6.05c-1.7-6.18-3.27-12.36-4.58-18.41h-11.2l10.12,34.22h5.24c0,0-1.08,5.48-3.72,6.97h-1.62
			c-0.57,0.08-2.63-0.06-2.77,0c0.15,0.05,0.35,0.1,0.56,0.14c0.25,0.04,0.58,0.09,1.02,0.16c0.36,0.05-0.37-0.03-1.02-0.16
			c-0.46-0.08-0.61-0.12-0.56-0.14c0,0-0.01,0-0.01,0h-0.33l-0.11,0.31l-3.72,6.58c1.83,0.68,5.04,1.53,8.24,1.53
			c5.04,0,8.09-1.53,10.18-6.62c4.84-13.45,8.84-27.45,13.22-43H511.56z"/>
	</g>
</g>
</svg>
